<?xml version="1.0" standalone="no"?>
<!DOCTYPE svg PUBLIC "-//W3C//DTD SVG 20010904//EN"
 "http://www.w3.org/TR/2001/REC-SVG-20010904/DTD/svg10.dtd">
<svg version="1.0" xmlns="http://www.w3.org/2000/svg"
 width="1200.000000pt" height="500.000000pt" viewBox="0 0 1200.000000 500.000000"
 preserveAspectRatio="xMidYMid meet">

<g transform="translate(0.000000,500.000000) scale(0.100000,-0.100000)"
fill="#000000" stroke="none">
<path d="M8245 4708 c-243 -6 -365 -12 -890 -48 -82 -5 -184 -14 -225 -20 -41
-5 -127 -14 -190 -20 -220 -21 -390 -42 -575 -71 -66 -10 -133 -19 -150 -19
-16 0 -66 -7 -110 -15 -44 -8 -179 -31 -300 -50 -567 -93 -1271 -244 -1740
-375 -55 -15 -138 -38 -185 -50 -83 -22 -114 -31 -315 -92 -173 -51 -807 -259
-880 -288 -38 -15 -88 -35 -110 -44 -38 -14 -26 -15 185 -9 406 10 548 -27
623 -166 35 -64 57 -177 57 -296 l0 -93 -152 -7 c-84 -4 -173 -5 -198 -3 l-45
3 -6 105 c-7 138 -29 180 -111 215 -53 21 -190 30 -278 16 -106 -16 -159 -45
-188 -101 -22 -41 -23 -55 -20 -170 4 -132 13 -164 60 -207 35 -33 119 -66
258 -103 434 -113 490 -133 566 -203 101 -92 129 -179 129 -407 0 -132 -3
-165 -22 -225 -28 -90 -75 -145 -156 -184 -101 -50 -200 -61 -557 -64 -272 -2
-324 0 -383 15 -200 52 -265 150 -283 429 l-7 106 84 6 c46 4 136 7 200 7
l116 0 6 -102 c11 -175 50 -220 209 -241 103 -13 242 3 307 35 70 35 85 70 89
204 8 233 -35 282 -303 355 -332 91 -407 114 -481 149 -133 62 -188 131 -219
278 -21 96 -18 290 5 377 10 39 17 71 16 71 -6 7 -559 -266 -671 -331 -55 -32
-116 -66 -135 -77 -19 -11 -79 -47 -133 -81 -53 -34 -105 -67 -115 -72 -35
-21 -79 -51 -136 -95 -32 -25 -73 -56 -92 -70 -109 -83 -154 -124 -295 -267
-261 -265 -368 -464 -369 -688 0 -182 65 -318 227 -476 186 -183 463 -326 853
-441 119 -35 285 -76 395 -97 59 -12 111 -23 115 -26 13 -8 139 -26 410 -59
69 -9 142 -18 164 -21 238 -33 497 -45 1051 -52 494 -5 870 4 1115 27 58 5
175 14 260 20 85 5 189 14 230 19 41 6 131 15 200 21 151 14 473 54 730 91 41
5 102 14 135 19 59 8 99 15 400 66 200 35 646 123 875 175 102 22 203 45 225
49 93 20 575 145 770 200 61 17 135 38 165 46 30 8 93 28 140 43 47 16 119 38
160 51 101 30 309 100 450 150 63 23 126 45 140 50 27 8 201 75 235 90 11 5
42 16 69 25 51 16 309 120 335 135 8 4 -95 7 -230 7 -201 -2 -256 1 -312 15
-94 25 -155 58 -209 116 -108 116 -126 195 -139 632 -13 413 -7 691 15 775 39
141 121 243 229 284 134 49 219 57 790 66 l327 6 0 -111 0 -110 -187 0 c-288
-1 -550 -16 -611 -35 -67 -21 -113 -62 -143 -127 l-24 -53 2 -457 c1 -281 6
-484 12 -529 28 -178 123 -251 329 -250 162 0 255 40 299 130 22 45 27 70 31
161 3 60 1 156 -3 215 l-7 106 -209 -3 c-115 -1 -212 2 -216 6 -5 4 -10 61
-11 125 l-4 118 31 6 c61 12 688 9 713 -4 42 -21 78 -62 88 -99 5 -20 11 -167
12 -326 1 -240 -1 -298 -14 -344 -18 -61 -16 -70 9 -49 21 16 43 29 131 76 35
18 81 45 102 58 22 14 42 25 45 25 3 0 39 23 81 50 41 27 78 50 80 50 10 0
191 124 283 194 51 39 105 80 120 90 48 35 322 310 364 366 94 123 146 220
189 348 18 53 23 89 23 177 0 131 -24 220 -87 318 -56 88 -188 219 -290 288
-95 64 -278 161 -373 198 -33 13 -69 27 -80 31 -269 108 -683 206 -1110 260
-44 6 -114 15 -155 21 -80 11 -226 23 -460 39 -80 6 -284 12 -455 15 -170 3
-339 6 -375 8 -36 1 -186 -1 -335 -5z m565 -1025 c0 -10 7 -382 15 -828 8
-445 15 -860 15 -921 l0 -111 -192 -7 c-105 -4 -195 -3 -198 1 -8 9 -41 1863
-33 1876 2 4 92 7 199 7 178 0 194 -1 194 -17z m-921 -37 c75 -25 92 -35 146
-90 105 -105 129 -204 123 -514 -4 -177 -6 -203 -27 -256 -27 -67 -85 -136
-145 -171 -23 -13 -77 -34 -121 -46 -44 -13 -81 -24 -83 -25 -1 -1 108 -164
244 -363 135 -199 245 -363 243 -365 -2 -2 -97 -6 -210 -10 l-206 -6 -234 355
-234 355 -103 0 -104 0 7 -360 8 -360 -202 0 -201 0 -1 178 c0 97 -6 479 -12
847 -7 369 -9 690 -6 713 6 46 30 84 73 116 24 18 47 22 179 27 84 3 294 5
467 5 l315 -2 84 -28z m-1896 -13 c3 -16 151 -435 330 -933 179 -498 323 -908
320 -912 -2 -5 -93 -8 -203 -8 -179 0 -199 2 -205 18 -4 9 -114 319 -245 687
-131 369 -242 680 -247 692 -6 17 -61 -144 -237 -697 l-230 -720 -135 0 c-75
0 -166 -3 -203 -7 -58 -5 -68 -4 -68 10 0 9 119 387 264 840 146 453 274 866
286 918 12 52 25 104 30 117 l10 22 264 0 264 0 5 -27z m-933 -123 l0 -130
-277 0 -276 0 6 -342 c4 -189 10 -555 14 -814 l6 -471 -129 -6 c-71 -4 -159
-7 -196 -7 l-66 0 -6 73 c-3 39 -8 277 -11 527 -3 250 -8 587 -12 748 l-6 292
-278 0 -278 0 -3 113 c-2 61 -1 115 2 119 4 5 723 19 1353 26 l157 2 0 -130z"/>
<path d="M7183 3449 c-10 -10 -13 -87 -13 -313 0 -166 3 -332 7 -370 l6 -69
171 6 c187 7 266 21 324 60 75 49 91 121 82 373 -5 146 -8 165 -31 210 -21 40
-36 54 -84 79 -58 30 -59 30 -254 33 -150 3 -199 1 -208 -9z"/>
</g>
</svg>
